<svg width="18" height="19" viewBox="0 0 18 19" fill="none" xmlns="http://www.w3.org/2000/svg">
<path d="M8.00005 14.0126C8.31298 13.6844 8.73741 13.5 9.17997 13.5C9.62253 13.5 10.047 13.6844 10.3599 14.0126C10.6728 14.3408 10.8486 14.7859 10.8486 15.25C10.8486 15.7141 10.6728 16.1592 10.3599 16.4874C10.047 16.8156 9.62253 17 9.17997 17C8.73741 17 8.31298 16.8156 8.00005 16.4874C7.68711 16.1592 7.51131 15.7141 7.51131 15.25C7.51131 14.7859 7.68711 14.3408 8.00005 14.0126Z" fill="#323232"/>
<path d="M8.00005 8.01256C8.31298 7.68437 8.73741 7.5 9.17997 7.5C9.62253 7.5 10.047 7.68437 10.3599 8.01256C10.6728 8.34075 10.8486 8.78587 10.8486 9.25C10.8486 9.71413 10.6728 10.1592 10.3599 10.4874C10.047 10.8156 9.62253 11 9.17997 11C8.73741 11 8.31298 10.8156 8.00005 10.4874C7.68711 10.1592 7.51131 9.71413 7.51131 9.25C7.51131 8.78587 7.68711 8.34075 8.00005 8.01256Z" fill="#323232"/>
<path d="M8.5414 1.63321C8.74385 1.54526 8.96084 1.5 9.17997 1.5C9.3991 1.5 9.61609 1.54526 9.81854 1.63321C10.021 1.72116 10.2049 1.85006 10.3599 2.01256C10.5148 2.17507 10.6378 2.36798 10.7216 2.5803C10.8055 2.79262 10.8486 3.02019 10.8486 3.25C10.8486 3.47981 10.8055 3.70738 10.7216 3.9197C10.6378 4.13202 10.5148 4.32494 10.3599 4.48744C10.2049 4.64994 10.021 4.77884 9.81854 4.86679C9.61609 4.95473 9.3991 5 9.17997 5C8.96084 5 8.74385 4.95473 8.5414 4.86679C8.33895 4.77884 8.155 4.64994 8.00005 4.48744C7.8451 4.32494 7.72219 4.13202 7.63833 3.9197C7.55447 3.70738 7.51131 3.47981 7.51131 3.25C7.51131 3.02019 7.55447 2.79262 7.63833 2.5803C7.72219 2.36798 7.8451 2.17507 8.00005 2.01256C8.155 1.85006 8.33895 1.72116 8.5414 1.63321Z" fill="#323232"/>
</svg>